<?xml version="1.0" encoding="UTF-8" standalone="no"?>
<!-- Created with Inkscape (http://www.inkscape.org/) -->

<svg
   width="128"
   height="128"
   viewBox="0 0 33.866667 33.866667"
   version="1.1"
   id="svg5"
   inkscape:version="1.2.2 (b0a8486541, 2022-12-01)"
   sodipodi:docname="sync_watcher_icon.svg"
   xml:space="preserve"
   xmlns:inkscape="http://www.inkscape.org/namespaces/inkscape"
   xmlns:sodipodi="http://sodipodi.sourceforge.net/DTD/sodipodi-0.dtd"
   xmlns:xlink="http://www.w3.org/1999/xlink"
   xmlns="http://www.w3.org/2000/svg"
   xmlns:svg="http://www.w3.org/2000/svg"
   xmlns:rdf="http://www.w3.org/1999/02/22-rdf-syntax-ns#"
   xmlns:cc="http://creativecommons.org/ns#"
   xmlns:dc="http://purl.org/dc/elements/1.1/"><title
     id="title251">sync Watcher icon</title><sodipodi:namedview
     id="namedview7"
     pagecolor="#ffffff"
     bordercolor="#000000"
     borderopacity="0.25"
     inkscape:showpageshadow="2"
     inkscape:pageopacity="0"
     inkscape:pagecheckerboard="0"
     inkscape:deskcolor="#d1d1d1"
     inkscape:document-units="px"
     showgrid="false"
     inkscape:zoom="2.1946698"
     inkscape:cx="-59.917897"
     inkscape:cy="43.058869"
     inkscape:window-width="1852"
     inkscape:window-height="1052"
     inkscape:window-x="68"
     inkscape:window-y="0"
     inkscape:window-maximized="1"
     inkscape:current-layer="layer1" /><defs
     id="defs2"><linearGradient
       inkscape:collect="always"
       id="linearGradient2628"><stop
         style="stop-color:#877626;stop-opacity:1;"
         offset="0.67901236"
         id="stop2626" /><stop
         style="stop-color:#e1c96a;stop-opacity:0;"
         offset="1"
         id="stop2624" /></linearGradient><radialGradient
       inkscape:collect="always"
       xlink:href="#linearGradient2628"
       id="radialGradient2630"
       cx="19.252077"
       cy="16.878874"
       fx="19.252077"
       fy="16.878874"
       r="16.148065"
       gradientUnits="userSpaceOnUse"
       gradientTransform="matrix(0.00527907,-0.99774507,0.99998596,0.00529193,0.23959205,36.083465)" /><filter
       inkscape:collect="always"
       style="color-interpolation-filters:sRGB"
       id="filter994"
       x="-0.047599005"
       y="-0.055046908"
       width="1.095198"
       height="1.105099"><feGaussianBlur
         inkscape:collect="always"
         stdDeviation="0.48929224"
         id="feGaussianBlur996" /></filter></defs><g
     inkscape:groupmode="layer"
     id="layer2"
     inkscape:label="Слой 2"
     style="display:none"><path
       style="display:inline;fill:#666666;stroke:none;stroke-width:0.0886354;stroke-dasharray:none"
       d="m 30.027951,14.441291 c 0,0 -1.005809,-2.682152 -1.532657,-3.640064 -0.328052,-0.596464 -2.059509,-2.969526 -2.059509,-2.969526 l 1.245285,1.0537029 -0.239477,-1.8679278 1.245282,1.7721368 c 0,0 0.58757,0.7099743 1.005808,2.4426751 0.335268,1.388971 0.33527,3.209003 0.335268,3.209003 z"
       id="path1698"
       sodipodi:nodetypes="csccccsc" /><path
       id="path1711"
       style="display:inline;fill:url(#radialGradient2630);fill-opacity:1;stroke:none;stroke-width:0.355694"
       d="M 16.933701,0.78526936 C 8.0151009,0.78510694 0.78510684,8.0151014 0.78526903,16.9337 0.78551153,25.852013 8.015387,33.08156 16.933701,33.081399 25.851728,33.081155 33.081156,25.851727 33.0814,16.9337 33.081561,8.0153865 25.852014,0.78551187 16.933701,0.78526936 Z"
       sodipodi:nodetypes="ccccc" /><path
       style="display:inline;fill:#666666;stroke:none;stroke-width:0.0886354;stroke-dasharray:none"
       d="m 9.4068081,23.974707 c 0,0 -5.4187653,-4.538217 -5.4865024,-9.956984 C 3.8525766,8.5989566 6.155547,3.9930052 10.896968,4.0607397 c 5.486357,0.078376 9.144167,1.8288337 10.431124,2.573914 1.286957,0.7450806 5.418765,3.6576673 6.63799,5.6897043 1.21922,2.032038 1.557893,3.183526 1.557893,3.183526 0,0 -1.832005,-2.040258 -2.844848,-3.318994 -0.945217,-1.193357 -4.948337,-4.629526 -7.992684,-5.0123598 -3.259976,-0.4099496 -7.044394,0 -8.670027,1.2192225 -1.6256277,1.2192228 -3.1835203,3.9925803 -3.1835251,6.4347853 -4.8e-6,3.522198 2.5739172,9.144169 2.5739172,9.144169 z"
       id="path1642"
       sodipodi:nodetypes="csssscssssc" /><path
       style="display:inline;fill:#666666;stroke:none;stroke-width:0.0886354;stroke-dasharray:none"
       d="m 29.884266,18.129251 c 0,0 -0.431064,0.574747 -0.718434,1.005808 -0.287372,0.43106 -1.436869,3.209004 -1.963721,3.975332 -0.526849,0.766331 -2.107404,2.634258 -2.538463,3.065317 -0.431061,0.431061 -2.730052,1.96372 -3.2569,2.059511 -0.526854,0.09579 -2.442675,0.239477 -2.969528,0.239477 -0.52685,0 -1.412562,-0.876957 -3.161106,0.383166 -1.794414,1.29318 -3.563572,2.873735 -3.544277,2.873735 1.097662,-0.651337 2.223267,-1.280319 3.400588,-1.867929 -0.525106,0.569381 -1.067722,1.112497 -1.532655,1.772137 1.083327,-0.821135 2.23877,-1.425932 3.400583,-2.011614 -0.3672,0.445242 -0.878084,1.16248 -1.101597,1.580554 0.659077,-0.530911 1.793108,-1.27897 2.777941,-1.724241 -0.408626,0.587478 -0.671134,1.101897 -0.957909,1.628449 0.482393,-0.558781 0.942859,-1.117563 1.484762,-1.676344 -0.221265,0.515458 -0.351436,1.000553 -0.478954,1.484762 0.516731,-0.5683 1.064888,-1.140093 1.724239,-1.72424 -0.04577,0.527917 -0.197588,1.002804 -0.335267,1.484763 0.396858,-0.492616 0.784435,-1.008436 1.149492,-1.580554 -7.34e-4,0.462992 -0.06376,0.925981 -0.14369,1.388972 0.43106,-0.59359 0.862123,-1.167512 1.293183,-1.867929 -0.03161,0.431061 -0.163012,0.862121 -0.287375,1.293182 0.736388,-0.773657 1.416475,-1.641153 2.107407,-2.49057 0,0 -0.538826,1.861941 -0.766329,2.538465 0.455007,-0.658567 2.096282,-3.701987 2.096282,-3.701987 l -0.755205,2.600389 2.146585,-3.811808 -0.518135,2.422836 c 0,0 1.540875,-4.333348 2.163517,-5.866005 0.622643,-1.532659 1.284965,-3.473634 1.284966,-3.473634 z"
       id="path1700"
       sodipodi:nodetypes="csssssscccccccccccccccccccccsc" /></g><g
     inkscape:label="Слой 1"
     inkscape:groupmode="layer"
     id="layer1"
     style="display:inline"><g
       id="g992"
       transform="matrix(1.2183325,0,0,1.2183325,-4.1758997,-4.5061866)"
       style="stroke-width:0.820794;fill:#000000;stroke:#000000;filter:url(#filter994)"><path
         id="path988"
         style="fill:#000000;fill-opacity:1;stroke:#000000;stroke-width:0.291952"
         d="M 17.326591,6.2078899 A 11.374292,11.374292 0 0 0 5.9520915,17.582389 11.374292,11.374292 0 0 0 17.326591,28.956372 11.374292,11.374292 0 0 0 28.700574,17.582389 11.374292,11.374292 0 0 0 17.326591,6.2078899 Z m 0,1.2588379 A 10.115386,10.115386 0 0 1 27.441736,17.582389 10.115386,10.115386 0 0 1 17.326591,27.697534 10.115386,10.115386 0 0 1 7.2109294,17.582389 10.115386,10.115386 0 0 1 17.326591,7.4667278 Z" /><path
         id="path990"
         style="fill:#000000;fill-opacity:1;stroke:#000000;stroke-width:0.0523561"
         d="m 6.7556601,14.093197 a 2.0397639,2.0397639 0 0 0 -2.0396688,2.039669 2.0397639,2.0397639 0 0 0 2.0396688,2.039668 2.0397639,2.0397639 0 0 0 1.6402099,-0.82889 l 10.689787,2.863908 a 2.0397639,2.0397639 0 0 0 0.303341,0.922941 l -2.899565,5.021916 a 2.0397639,2.0397639 0 0 0 -0.398942,-0.03927 2.0397639,2.0397639 0 0 0 -2.039669,2.039669 2.0397639,2.0397639 0 0 0 2.039669,2.039669 2.0397639,2.0397639 0 0 0 2.039669,-2.039669 2.0397639,2.0397639 0 0 0 -0.305408,-1.07332 l 2.901115,-5.025016 a 2.0397639,2.0397639 0 0 0 0.394291,0.03979 2.0397639,2.0397639 0 0 0 2.039669,-2.040186 2.0397639,2.0397639 0 0 0 -0.01602,-0.254765 l 3.495394,-2.018481 a 2.0397639,2.0397639 0 0 0 1.257804,0.434599 2.0397639,2.0397639 0 0 0 2.039669,-2.039669 2.0397639,2.0397639 0 0 0 -2.039669,-2.040186 2.0397639,2.0397639 0 0 0 -2.039668,2.040186 2.0397639,2.0397639 0 0 0 0.0088,0.181384 L 22.3201,18.404565 a 2.0397639,2.0397639 0 0 0 -1.199927,-0.390158 2.0397639,2.0397639 0 0 0 -1.5012,0.659392 L 8.7622559,15.764929 A 2.0397639,2.0397639 0 0 0 6.7556601,14.093197 Z" /></g><g
       id="g2441"
       transform="matrix(1.2183325,0,0,1.2183325,-4.1758997,-4.5061866)"
       style="stroke-width:0.820794"><path
         id="circle373"
         style="fill:#ffffff;fill-opacity:1;stroke:none;stroke-width:0.291952"
         d="M 17.326591,6.2078899 A 11.374292,11.374292 0 0 0 5.9520915,17.582389 11.374292,11.374292 0 0 0 17.326591,28.956372 11.374292,11.374292 0 0 0 28.700574,17.582389 11.374292,11.374292 0 0 0 17.326591,6.2078899 Z m 0,1.2588379 A 10.115386,10.115386 0 0 1 27.441736,17.582389 10.115386,10.115386 0 0 1 17.326591,27.697534 10.115386,10.115386 0 0 1 7.2109294,17.582389 10.115386,10.115386 0 0 1 17.326591,7.4667278 Z" /><path
         id="circle305"
         style="fill:#ffffff;fill-opacity:1;stroke:none;stroke-width:0.0523561"
         d="m 6.7556601,14.093197 a 2.0397639,2.0397639 0 0 0 -2.0396688,2.039669 2.0397639,2.0397639 0 0 0 2.0396688,2.039668 2.0397639,2.0397639 0 0 0 1.6402099,-0.82889 l 10.689787,2.863908 a 2.0397639,2.0397639 0 0 0 0.303341,0.922941 l -2.899565,5.021916 a 2.0397639,2.0397639 0 0 0 -0.398942,-0.03927 2.0397639,2.0397639 0 0 0 -2.039669,2.039669 2.0397639,2.0397639 0 0 0 2.039669,2.039669 2.0397639,2.0397639 0 0 0 2.039669,-2.039669 2.0397639,2.0397639 0 0 0 -0.305408,-1.07332 l 2.901115,-5.025016 a 2.0397639,2.0397639 0 0 0 0.394291,0.03979 2.0397639,2.0397639 0 0 0 2.039669,-2.040186 2.0397639,2.0397639 0 0 0 -0.01602,-0.254765 l 3.495394,-2.018481 a 2.0397639,2.0397639 0 0 0 1.257804,0.434599 2.0397639,2.0397639 0 0 0 2.039669,-2.039669 2.0397639,2.0397639 0 0 0 -2.039669,-2.040186 2.0397639,2.0397639 0 0 0 -2.039668,2.040186 2.0397639,2.0397639 0 0 0 0.0088,0.181384 L 22.3201,18.404565 a 2.0397639,2.0397639 0 0 0 -1.199927,-0.390158 2.0397639,2.0397639 0 0 0 -1.5012,0.659392 L 8.7622559,15.764929 A 2.0397639,2.0397639 0 0 0 6.7556601,14.093197 Z" /></g><g
       id="g427"
       transform="matrix(0.84316127,0,0,0.84316127,1.7174644,1.9418976)"
       style="stroke-width:1.18602"><path
         id="path1467"
         style="fill:#4d4d4d;stroke:none;stroke-width:0.105122"
         d="m 29.075216,17.178233 c 0,1.122055 -1.229454,3.008098 -1.715537,3.9503 -2.209985,4.28374 -5.188038,6.391754 -9.281203,6.233762 -5.235048,-0.202068 -9.1407232,-4.319657 -9.8588301,-9.589873 -0.060292,-0.442535 0.026968,-0.886222 0.079346,-1.31712 0.058083,-0.47791 0.3167442,-0.826585 0.4351542,-1.280817 0.1145929,-0.439568 0.1350451,-0.96922 0.2541877,-1.398712 1.0344902,-3.729205 4.5598822,-5.6280959 8.6812802,-5.6219505 3.958768,0.0059 7.495657,3.0127825 9.476528,5.8270135 0.832424,1.18263 1.929074,1.645506 1.929074,3.197397 z"
         sodipodi:nodetypes="ssssssssss" /><path
         id="circle774"
         style="fill:#808000;stroke:none;stroke-width:0.105122"
         d="m 27.055546,17.69819 c 0,0.935409 -0.911553,2.027303 -1.179942,2.86969 -1.085909,3.408309 -4.02044,5.676797 -7.677866,5.676795 -4.561382,-1e-6 -8.3309566,-3.754548 -8.3309566,-8.474641 0,-4.720094 3.6258886,-8.4985896 8.1872696,-8.4985907 3.311138,-8e-7 6.382712,2.0881227 7.699602,4.9989017 0.497242,1.099075 1.301893,2.134098 1.301893,3.427845 z"
         sodipodi:nodetypes="sssssss" /><circle
         style="fill:#1a1a1a;stroke:none;stroke-width:0.389581"
         id="path433"
         cx="18.58091"
         cy="17.93767"
         r="4.6669445" /><circle
         style="fill:#2e2e2e;stroke:none;stroke-width:0.38958;fill-opacity:1"
         id="circle431"
         cx="18.58091"
         cy="17.93767"
         r="3.3911886" /><path
         style="fill:#666666;stroke:none;stroke-width:0.3138"
         d="m 18.893528,17.087989 0.0418,-2.967822 c 0.830569,0.05832 1.971448,0.669161 2.490437,1.162361 z"
         id="path550"
         sodipodi:nodetypes="cccc" /></g></g><metadata
     id="metadata249"><rdf:RDF><cc:Work
         rdf:about=""><dc:title>sync Watcher icon</dc:title><dc:creator><cc:Agent><dc:title>ri/Ar</dc:title></cc:Agent></dc:creator><dc:publisher><cc:Agent><dc:title>RI Network</dc:title></cc:Agent></dc:publisher><dc:language>RU</dc:language></cc:Work></rdf:RDF></metadata></svg>
